<svg width="24" height="24" viewBox="0 0 24 24" fill="none" xmlns="http://www.w3.org/2000/svg">
<g clip-path="url(#clip0_2948_39963)">
<path d="M11.4638 17.0573L2.4438 8.01227C2.14844 7.71592 2.14894 7.23612 2.44532 6.94027C2.74167 6.64464 3.22174 6.64541 3.51732 6.9418L12.0005 15.4484L20.4836 6.94149C20.7792 6.64514 21.259 6.64438 21.5553 6.93996C21.7039 7.08827 21.7782 7.28256 21.7782 7.47686C21.7782 7.67066 21.7044 7.86419 21.5569 8.01223L12.5371 17.0573C12.3951 17.2 12.2018 17.2801 12.0005 17.2801C11.7991 17.2801 11.6061 17.1998 11.4638 17.0573Z" fill="#363C4B"/>
</g>
<defs>
<clipPath id="clip0_2948_39963">
<rect width="19.5556" height="19.5556" fill="white" transform="matrix(4.37114e-08 1 1 -4.37114e-08 2.22266 2.22266)"/>
</clipPath>
</defs>
</svg>
